<svg width="137" height="28" viewBox="0 0 137 28" fill="none" xmlns="http://www.w3.org/2000/svg">
<path d="M5.10713 21.8314C5.10713 21.9759 4.4326 22.0482 3.08355 22.0482C1.75056 22.0482 1.08406 21.9358 1.08406 21.7109V5.20911C1.08406 5.09669 1.33299 5.01639 1.83086 4.96821C2.32872 4.92003 2.74629 4.89594 3.08355 4.89594C4.4326 4.89594 5.10713 5.04048 5.10713 5.32956V10.1476C6.0065 9.87459 6.68905 9.73808 7.1548 9.73808C8.37537 9.73808 9.33898 10.0673 10.0456 10.7258C10.7523 11.3682 11.1056 12.5727 11.1056 14.3393V21.8073C11.1056 21.9518 10.4792 22.0241 9.22656 22.0241C7.81326 21.9759 7.10662 21.8956 7.10662 21.7832V14.7007C7.10662 13.9137 6.84965 13.5202 6.33573 13.5202C5.98241 13.5202 5.57287 13.6889 5.10713 14.0261V21.8314ZM22.2588 21.3496C21.247 21.9438 19.9461 22.2409 18.3562 22.2409C16.7662 22.2409 15.4252 21.7029 14.3331 20.6269C13.241 19.5348 12.695 18.0331 12.695 16.122C12.695 14.1948 13.2169 12.645 14.2608 11.4726C15.3208 10.3002 16.6538 9.71398 18.2598 9.71398C19.8658 9.71398 21.1025 10.1235 21.9697 10.9426C22.853 11.7617 23.2947 12.7574 23.2947 13.9298C23.2947 16.5315 21.8011 17.8324 18.8139 17.8324H17.1517C17.1517 18.3142 17.2802 18.6515 17.5371 18.8442C17.8101 19.0208 18.2036 19.1092 18.7175 19.1092C19.8418 19.1092 20.9098 18.8522 21.9215 18.3383C21.9376 18.3222 22.0099 18.4346 22.1384 18.6755C22.5238 19.3661 22.7165 19.9523 22.7165 20.4341C22.7165 20.8999 22.5639 21.205 22.2588 21.3496ZM19.2475 14.3875C19.2475 13.713 18.9183 13.3757 18.2598 13.3757C17.9547 13.3757 17.6897 13.4721 17.4648 13.6648C17.2561 13.8414 17.1517 14.1064 17.1517 14.4598V15.2066H18.4525C18.9825 15.2066 19.2475 14.9335 19.2475 14.3875ZM26.3861 13.2552C25.9365 12.4522 25.7116 11.8018 25.7116 11.3039C25.7116 10.79 25.8481 10.4608 26.1211 10.3162C27.0366 9.91474 28.2893 9.71398 29.8792 9.71398C31.4852 9.71398 32.6175 10.0914 33.2759 10.8462C33.9344 11.585 34.2636 12.6851 34.2636 14.1466V17.9528H35.0827C35.3557 17.9528 35.5645 18.1134 35.7091 18.4346C35.8697 18.7558 35.95 19.1975 35.95 19.7596C35.95 20.3217 35.8054 20.8758 35.5163 21.4218C35.2433 21.9679 34.8659 22.2409 34.3841 22.2409C33.5168 22.2409 32.8182 22.008 32.2882 21.5423C32.0473 21.3496 31.8626 21.1167 31.7342 20.8437C30.9954 21.7752 29.8471 22.2409 28.2893 22.2409C27.1169 22.2409 26.1292 21.8233 25.3262 20.9882C24.5232 20.1531 24.1217 19.1654 24.1217 18.0251C24.1217 15.4073 25.6875 14.0984 28.8193 14.0984H30.1442V13.8575C30.1442 13.4399 30.0719 13.1749 29.9274 13.0625C29.7989 12.934 29.4857 12.8698 28.9879 12.8698C28.3776 12.8698 27.5103 12.9983 26.3861 13.2552ZM28.3134 17.6878C28.3134 18.0412 28.4097 18.3142 28.6024 18.5069C28.7952 18.6836 29.0361 18.7719 29.3251 18.7719C29.6303 18.7719 29.9033 18.6515 30.1442 18.4106V16.5556H29.4697C28.6988 16.5556 28.3134 16.933 28.3134 17.6878ZM41.6979 21.8073C41.6979 21.9518 40.8789 22.0241 39.2407 22.0241C37.9559 22.008 37.3135 21.9438 37.3135 21.8314V5.42592C37.3135 5.18502 38.0924 5.06457 39.6503 5.06457C41.0154 5.11275 41.6979 5.19305 41.6979 5.30547V21.8073ZM49.4179 21.8555C49.4179 22.0482 48.7434 22.1445 47.3943 22.1445C45.7883 22.0803 44.9853 21.9759 44.9853 21.8314V13.3034H43.7567C43.4355 13.3034 43.2749 12.7494 43.2749 11.6412C43.2749 11.3521 43.299 10.9988 43.3472 10.5812C43.4114 10.1637 43.5319 9.95489 43.7085 9.95489H44.9853V7.83495C44.9853 7.51374 45.6598 7.35314 47.0089 7.35314C48.374 7.35314 49.0565 7.48162 49.0565 7.73859V9.28036L49.0806 9.95489H51.1283C51.4013 9.95489 51.5378 10.517 51.5378 11.6412C51.5378 12.7654 51.4013 13.3275 51.1283 13.3275H49.4179V21.8555ZM56.7694 21.8314C56.7694 21.9759 56.0948 22.0482 54.7458 22.0482C53.4128 22.0482 52.7463 21.9358 52.7463 21.7109V5.20911C52.7463 5.09669 52.9952 5.01639 53.4931 4.96821C53.991 4.92003 54.4085 4.89594 54.7458 4.89594C56.0948 4.89594 56.7694 5.04048 56.7694 5.32956V10.1476C57.6687 9.87459 58.3513 9.73808 58.817 9.73808C60.0376 9.73808 61.0012 10.0673 61.7079 10.7258C62.4145 11.3682 62.7678 12.5727 62.7678 14.3393V21.8073C62.7678 21.9518 62.1415 22.0241 60.8888 22.0241C59.4755 21.9759 58.7689 21.8956 58.7689 21.7832V14.7007C58.7689 13.9137 58.5119 13.5202 57.998 13.5202C57.6446 13.5202 57.2351 13.6889 56.7694 14.0261V21.8314ZM68.7657 16.0256C68.7657 17.5995 69.36 18.3865 70.5484 18.3865C71.3193 18.3865 71.9617 18.2339 72.4756 17.9288C72.7165 17.9288 72.9093 18.3463 73.0538 19.1814C73.2144 20.0005 73.2947 20.5626 73.2947 20.8678C73.2947 21.1568 73.2546 21.3496 73.1742 21.4459C72.3231 21.9759 71.1587 22.2409 69.6812 22.2409C68.2036 22.2409 66.9429 21.6949 65.899 20.6028C64.8712 19.4946 64.3572 17.993 64.3572 16.0979C64.3572 14.1867 64.8631 12.645 65.8749 11.4726C66.9028 10.3002 68.2598 9.71398 69.9462 9.71398C71.6485 9.71398 72.829 10.1235 73.4874 10.9426C73.632 11.1192 73.7042 11.3842 73.7042 11.7376C73.7042 12.0748 73.64 12.4924 73.5115 12.9903C73.2224 14.0181 72.845 14.6123 72.3793 14.7729C72.315 14.789 72.2187 14.797 72.0902 14.797C71.9778 14.797 71.8332 14.7007 71.6566 14.5079C71.0302 13.8816 70.5243 13.5684 70.1389 13.5684C69.7695 13.5684 69.4483 13.7611 69.1753 14.1466C68.9022 14.532 68.7657 15.1584 68.7657 16.0256ZM76.0609 20.5787C75.0652 19.4705 74.5673 17.9368 74.5673 15.9774C74.5673 14.0181 75.0652 12.4844 76.0609 11.3762C77.0727 10.2681 78.4298 9.71398 80.1322 9.71398C81.8346 9.71398 83.1836 10.2681 84.1793 11.3762C85.1751 12.4844 85.6729 14.0181 85.6729 15.9774C85.6729 17.9368 85.1751 19.4705 84.1793 20.5787C83.1836 21.6868 81.8346 22.2409 80.1322 22.2409C78.4298 22.2409 77.0727 21.6868 76.0609 20.5787ZM80.1322 13.7371C79.2328 13.7371 78.7831 14.4758 78.7831 15.9534C78.7831 17.4309 79.2328 18.1697 80.1322 18.1697C81.0476 18.1697 81.5053 17.4309 81.5053 15.9534C81.5053 14.4758 81.0476 13.7371 80.1322 13.7371ZM93.4708 5.28138C93.4708 5.04048 94.1052 4.92003 95.374 4.92003C95.8076 4.92003 96.3054 4.95215 96.8675 5.01639C97.4457 5.06457 97.7348 5.13684 97.7348 5.2332V17.9288H98.578C98.9795 17.9288 99.2445 18.2901 99.3729 19.0128C99.4051 19.2216 99.4211 19.5107 99.4211 19.8801C99.4211 20.2334 99.3087 20.667 99.0838 21.1809C98.7626 21.8876 98.2487 22.2409 97.5421 22.2409C97.0121 22.2409 96.5383 22.1365 96.1208 21.9277C95.7192 21.7189 95.4462 21.5021 95.3017 21.2773L95.0849 20.9641C94.2016 21.8153 93.0934 22.2409 91.7604 22.2409C90.4274 22.2409 89.2872 21.6868 88.3396 20.5787C87.3921 19.4705 86.9183 17.9288 86.9183 15.9534C86.9183 13.9619 87.4161 12.4281 88.4119 11.3521C89.4076 10.26 90.6523 9.71398 92.1459 9.71398C92.5795 9.71398 93.0211 9.76216 93.4708 9.85853V5.28138ZM92.6758 13.5684C91.7765 13.5684 91.3268 14.3795 91.3268 16.0015C91.3268 16.8206 91.4553 17.4148 91.7122 17.7842C91.9692 18.1375 92.2503 18.3142 92.5554 18.3142C92.8766 18.3142 93.1817 18.1777 93.4708 17.9047V13.8093C93.1978 13.6487 92.9328 13.5684 92.6758 13.5684ZM110.103 21.3496C109.092 21.9438 107.791 22.2409 106.201 22.2409C104.611 22.2409 103.27 21.7029 102.178 20.6269C101.086 19.5348 100.54 18.0331 100.54 16.122C100.54 14.1948 101.062 12.645 102.105 11.4726C103.165 10.3002 104.498 9.71398 106.104 9.71398C107.71 9.71398 108.947 10.1235 109.814 10.9426C110.698 11.7617 111.139 12.7574 111.139 13.9298C111.139 16.5315 109.646 17.8324 106.659 17.8324H104.996C104.996 18.3142 105.125 18.6515 105.382 18.8442C105.655 19.0208 106.048 19.1092 106.562 19.1092C107.686 19.1092 108.754 18.8522 109.766 18.3383C109.782 18.3222 109.855 18.4346 109.983 18.6755C110.368 19.3661 110.561 19.9523 110.561 20.4341C110.561 20.8999 110.409 21.205 110.103 21.3496ZM107.092 14.3875C107.092 13.713 106.763 13.3757 106.104 13.3757C105.799 13.3757 105.534 13.4721 105.309 13.6648C105.101 13.8414 104.996 14.1064 104.996 14.4598V15.2066H106.297C106.827 15.2066 107.092 14.9335 107.092 14.3875Z" fill="#2273FF"/>
<path d="M124.5 2.75H127V4.40239C127.795 4.35397 128.566 4.40027 129.259 4.54647C126.321 5.70275 124.969 8.67425 124.748 9.16088L124.734 9.19069C124.016 9.08169 123.239 8.99106 122.503 8.99781C121.744 9.06244 121.009 9.1745 119.797 9.85706C119.626 9.97781 119.396 10.1759 119.082 10.4779C119.06 10.4615 119.035 10.4463 119.003 10.4264C118.978 10.4104 118.948 10.3915 118.909 10.3665C118.736 10.2534 118.484 10.1004 118.175 9.94762C117.541 9.63269 116.762 9.36412 115.999 9.36412V6.94019C117.318 6.94019 118.505 7.38812 119.314 7.78975C119.595 7.92906 119.841 8.06831 120.045 8.19206C120.226 7.80694 120.464 7.44875 120.748 7.1185L119.376 4.9642L121.576 3.53511L122.843 5.52269C123.364 5.25369 123.924 5.03048 124.5 4.85505V2.75Z" fill="#DE2F3C"/>
<path d="M131.223 8.18179C130.312 8.6041 129.523 9.29829 128.812 10.6345C128.812 10.6345 127.235 9.91317 125.955 9.53823C126.937 7.54698 128.08 6.4266 129.766 5.64535C131.396 4.88962 133.341 4.69612 135.652 4.77596L135.542 7.74998C133.41 7.67629 132.189 7.73398 131.223 8.18179Z" fill="#DE2F3C"/>
<path d="M120.3 11.0121C115.761 15.0609 122.246 25.1827 127.433 25.1827C132.621 25.1827 139.764 15.0699 134.566 10.4337C134.446 10.3267 134.341 10.2305 134.244 10.1411C133.814 9.74717 133.528 9.48505 132.736 9.01367C131.14 9.01367 130.179 10.6094 129.742 11.5815C129.719 11.6309 129.692 11.6769 129.66 11.7192L128.651 14.5258L128.288 15.8309C128.249 15.9687 128.259 16.1155 128.316 16.2468L128.741 17.2282L130.939 16.973L131.084 18.2146L129.016 18.4547L129.15 20.4245L127.903 20.5096L127.735 18.0522L127.169 16.7432C126.998 16.3493 126.968 15.9089 127.083 15.4955L127.094 15.4565L125.823 16.0314L124.992 18.1325L123.83 17.6727L124.488 16.0087L122.481 15.5359L122.768 14.3192L125.271 14.909L127.557 13.8755L128.325 11.7377C126.345 10.8074 122.279 9.24717 120.3 11.0121Z" fill="#DE2F3C"/>
</svg>
